<svg preserveAspectRatio="none" overflow="visible" style="display: block;" width="80.5357" height="80.5357" viewBox="0 0 80.5357 80.5357" fill="none" xmlns="http://www.w3.org/2000/svg">
<g id="Group">
<g id="Group_2" filter="url(#filter0_d_0_79)">
<path id="Vector" d="M56.9037 66.5444C72.5204 57.3567 77.7321 37.2488 68.5444 21.6321C59.3567 6.01537 39.2488 0.803606 23.6321 9.99137C8.01537 19.1791 2.80361 39.287 11.9913 54.9037C21.1791 70.5204 41.287 75.7321 56.9037 66.5444Z" fill="#FFD21B"/>
<path id="Vector_2" d="M58.1483 68.66C74.9334 58.7849 80.5351 37.1725 70.66 20.3874C60.7849 3.60227 39.1725 -1.99937 22.3874 7.87577C5.60227 17.7509 0.000626087 39.3632 9.87577 56.1483C19.7509 72.9334 41.3632 78.5351 58.1483 68.66Z" stroke="white" stroke-width="6"/>
</g>
<path id="Vector_3" d="M29.3353 54.2918C32.5786 51.9729 33.169 47.2416 30.6541 43.7242C28.1392 40.2069 23.4712 39.2354 20.2279 41.5543C16.9847 43.8733 16.3943 48.6046 18.9092 52.1219C21.4241 55.6393 26.0921 56.6108 29.3353 54.2918Z" fill="#BC7B00"/>
<path id="Vector_4" d="M61.0725 36.2557C64.0843 34.5413 65.1236 30.6882 63.3939 27.6495C61.6643 24.6108 57.8206 23.5371 54.8088 25.2514C51.797 26.9658 50.7577 30.8189 52.4873 33.8576C54.217 36.8963 58.0607 37.97 61.0725 36.2557Z" fill="#BC7B00"/>
<path id="Vector_5" d="M56.0739 65.134C70.9117 56.4046 75.8635 37.2996 67.134 22.4618C58.4046 7.62397 39.2996 2.67223 24.4618 11.4017C9.62407 20.1312 4.67225 39.2361 13.4017 54.0739C22.1312 68.9117 41.2362 73.8635 56.0739 65.134Z" stroke="#232323" stroke-width="4"/>
<path id="Vector_6" d="M58.3559 31.3555C60.8559 39.3555 58.3559 47.1515 52.1265 53.0511C51.2378 53.8927 49.2213 52.3757 48.1254 53.0248C47.2707 53.5309 47.5261 57.9945 46.6282 58.3321C45.6745 58.6907 44.4189 54.7997 43.4392 54.9741C42.3673 55.1649 41.4548 57.6329 40.3813 57.6109C34.7954 57.4963 29.3969 54.5542 26.3559 49.3511" stroke="#232323" stroke-width="4" stroke-linecap="round" stroke-linejoin="round"/>
<path id="Vector_7" d="M42.7538 35.7397C44.4575 35.3401 45.3206 33.0775 44.6817 30.6859C44.0427 28.2943 42.1436 26.6794 40.4398 27.079C38.7361 27.4785 37.873 29.7412 38.512 32.1328C39.1509 34.5244 41.0501 36.1392 42.7538 35.7397Z" fill="#232323"/>
<path id="Vector_8" d="M35.5819 37.4283C37.174 36.702 37.5762 34.3139 36.4801 32.0943C35.384 29.8747 33.2048 28.6641 31.6127 29.3904C30.0206 30.1167 29.6185 32.5048 30.7145 34.7244C31.8106 36.944 33.9898 38.1546 35.5819 37.4283Z" fill="#232323"/>
</g>
<defs>
<filter id="filter0_d_0_79" x="0" y="0" width="80.5357" height="80.5357" filterUnits="userSpaceOnUse" color-interpolation-filters="sRGB">
<feFlood flood-opacity="0" result="BackgroundImageFix"/>
<feColorMatrix in="SourceAlpha" type="matrix" values="0 0 0 0 0 0 0 0 0 0 0 0 0 0 0 0 0 0 127 0" result="hardAlpha"/>
<feOffset dy="2"/>
<feGaussianBlur stdDeviation="1"/>
<feComposite in2="hardAlpha" operator="out"/>
<feColorMatrix type="matrix" values="0 0 0 0 0.160784 0 0 0 0 0.145098 0 0 0 0 0.141176 0 0 0 0.15 0"/>
<feBlend mode="normal" in2="BackgroundImageFix" result="effect1_dropShadow_0_79"/>
<feBlend mode="normal" in="SourceGraphic" in2="effect1_dropShadow_0_79" result="shape"/>
</filter>
</defs>
</svg>
